<svg xmlns="http://www.w3.org/2000/svg">
  <symbol id="export" viewBox="0 0 20 20">
    <path
      d="M17.2923 3.3335V7.50016C17.2923 7.84516 17.0123 8.12516 16.6673 8.12516C16.3223 8.12516 16.0423 7.84516 16.0423 7.50016V4.84269L9.60901 11.276C9.48734 11.3977 9.32732 11.4593 9.16732 11.4593C9.00732 11.4593 8.84729 11.3985 8.72563 11.276C8.48146 11.0318 8.48146 10.636 8.72563 10.3918L15.1589 3.9585H12.5007C12.1557 3.9585 11.8757 3.6785 11.8757 3.3335C11.8757 2.9885 12.1557 2.7085 12.5007 2.7085H16.6673C16.749 2.7085 16.8299 2.72525 16.9066 2.75692C17.0591 2.82025 17.1807 2.94192 17.2449 3.09526C17.2757 3.17109 17.2923 3.25183 17.2923 3.3335ZM16.6673 10.2085C16.3223 10.2085 16.0423 10.4885 16.0423 10.8335V14.1668C16.0423 15.481 15.4815 16.0418 14.1673 16.0418H5.83398C4.51982 16.0418 3.95898 15.481 3.95898 14.1668V5.8335C3.95898 4.51933 4.51982 3.9585 5.83398 3.9585H9.16732C9.51232 3.9585 9.79232 3.6785 9.79232 3.3335C9.79232 2.9885 9.51232 2.7085 9.16732 2.7085H5.83398C3.81898 2.7085 2.70898 3.8185 2.70898 5.8335V14.1668C2.70898 16.1818 3.81898 17.2918 5.83398 17.2918H14.1673C16.1823 17.2918 17.2923 16.1818 17.2923 14.1668V10.8335C17.2923 10.4885 17.0123 10.2085 16.6673 10.2085Z"

    />
  </symbol>
  <symbol id="delete" viewBox="0 0 20 20">
    <path
      d="M17.5 4.375H14.5342C13.7833 4.375 13.7517 4.28 13.5458 3.66333L13.3775 3.1575C13.1217 2.39083 12.4075 1.875 11.5992 1.875H8.40083C7.59249 1.875 6.8775 2.39 6.6225 3.1575L6.45417 3.66333C6.24834 4.28083 6.21666 4.375 5.46583 4.375H2.5C2.155 4.375 1.875 4.655 1.875 5C1.875 5.345 2.155 5.625 2.5 5.625H3.58166L4.22084 15.2075C4.34417 17.0617 5.48084 18.125 7.33917 18.125H12.6617C14.5192 18.125 15.6558 17.0617 15.78 15.2075L16.4192 5.625H17.5C17.845 5.625 18.125 5.345 18.125 5C18.125 4.655 17.845 4.375 17.5 4.375ZM7.80833 3.5525C7.89416 3.29667 8.13166 3.125 8.40083 3.125H11.5992C11.8683 3.125 12.1067 3.29667 12.1917 3.5525L12.36 4.05833C12.3967 4.1675 12.4333 4.27333 12.4733 4.375H7.525C7.565 4.2725 7.60251 4.16666 7.63917 4.05833L7.80833 3.5525ZM14.5317 15.1242C14.4525 16.3183 13.8575 16.875 12.6608 16.875H7.33833C6.14167 16.875 5.5475 16.3192 5.4675 15.1242L4.83417 5.625H5.465C5.56917 5.625 5.65583 5.61417 5.74917 5.6075C5.7775 5.61167 5.80333 5.625 5.8325 5.625H14.1658C14.1958 5.625 14.2208 5.61167 14.2492 5.6075C14.3425 5.61417 14.4292 5.625 14.5333 5.625H15.1642L14.5317 15.1242ZM12.2917 9.16667V13.3333C12.2917 13.6783 12.0117 13.9583 11.6667 13.9583C11.3217 13.9583 11.0417 13.6783 11.0417 13.3333V9.16667C11.0417 8.82167 11.3217 8.54167 11.6667 8.54167C12.0117 8.54167 12.2917 8.82167 12.2917 9.16667ZM8.95833 9.16667V13.3333C8.95833 13.6783 8.67833 13.9583 8.33333 13.9583C7.98833 13.9583 7.70833 13.6783 7.70833 13.3333V9.16667C7.70833 8.82167 7.98833 8.54167 8.33333 8.54167C8.67833 8.54167 8.95833 8.82167 8.95833 9.16667Z"

    />
  </symbol>
  <symbol id="extension" viewBox="0 0 20 20">
    <path
      d="M15.8327 18.125H12.916C12.3418 18.125 11.8743 17.6575 11.8743 17.0833V15.8333C11.8743 15.2592 11.4068 14.7917 10.8327 14.7917C10.2585 14.7917 9.79102 15.2592 9.79102 15.8333V17.0833C9.79102 17.6575 9.32352 18.125 8.74935 18.125H6.66602C5.40185 18.125 4.37435 17.0967 4.37435 15.8333V13.9583H3.33268C2.06852 13.9583 1.04102 12.93 1.04102 11.6667C1.04102 10.4033 2.06852 9.375 3.33268 9.375H4.37435V7.5C4.37435 6.23667 5.40185 5.20833 6.66602 5.20833H8.54102V4.16667C8.54102 2.90333 9.56852 1.875 10.8327 1.875C12.0968 1.875 13.1243 2.90333 13.1243 4.16667V5.20833H15.8327C17.0968 5.20833 18.1243 6.23667 18.1243 7.5V9.58333C18.1243 10.1575 17.6568 10.625 17.0827 10.625H15.8327C15.2585 10.625 14.791 11.0925 14.791 11.6667C14.791 12.2408 15.2585 12.7083 15.8327 12.7083H17.0827C17.6568 12.7083 18.1243 13.1758 18.1243 13.75V15.8333C18.1243 17.0967 17.0968 18.125 15.8327 18.125ZM13.1243 16.875H15.8327C16.4068 16.875 16.8743 16.4075 16.8743 15.8333V13.9583H15.8327C14.5685 13.9583 13.541 12.93 13.541 11.6667C13.541 10.4033 14.5685 9.375 15.8327 9.375H16.8743V7.5C16.8743 6.92583 16.4068 6.45833 15.8327 6.45833H12.916C12.3418 6.45833 11.8743 5.99083 11.8743 5.41667V4.16667C11.8743 3.5925 11.4068 3.125 10.8327 3.125C10.2585 3.125 9.79102 3.5925 9.79102 4.16667V5.41667C9.79102 5.99083 9.32352 6.45833 8.74935 6.45833H6.66602C6.09185 6.45833 5.62435 6.92583 5.62435 7.5V9.58333C5.62435 10.1575 5.15685 10.625 4.58268 10.625H3.33268C2.75852 10.625 2.29102 11.0925 2.29102 11.6667C2.29102 12.2408 2.75852 12.7083 3.33268 12.7083H4.58268C5.15685 12.7083 5.62435 13.1758 5.62435 13.75V15.8333C5.62435 16.4075 6.09185 16.875 6.66602 16.875H8.54102V15.8333C8.54102 14.57 9.56852 13.5417 10.8327 13.5417C12.0968 13.5417 13.1243 14.57 13.1243 15.8333V16.875Z"

    />
  </symbol>
  <symbol id="upload" viewBox="0 0 24 24">
    <path
      d="M20.53 8.47L14.53 2.47C14.389 2.329 14.199 2.25 14 2.25H8C5.582 2.25 4.25 3.582 4.25 6V18C4.25 20.418 5.582 21.75 8 21.75H17C19.418 21.75 20.75 20.418 20.75 18V9C20.75 8.801 20.671 8.61 20.53 8.47ZM14.75 4.811L18.189 8.25H17C15.423 8.25 14.75 7.577 14.75 6V4.811ZM17 20.25H8C6.423 20.25 5.75 19.577 5.75 18V6C5.75 4.423 6.423 3.75 8 3.75H13.25V6C13.25 8.418 14.582 9.75 17 9.75H19.25V18C19.25 19.577 18.577 20.25 17 20.25ZM13.53 13.47C13.823 13.763 13.823 14.238 13.53 14.531C13.384 14.677 13.192 14.751 13 14.751C12.808 14.751 12.616 14.678 12.47 14.531L11.75 13.811V17C11.75 17.414 11.414 17.75 11 17.75C10.586 17.75 10.25 17.414 10.25 17V13.811L9.53003 14.531C9.23703 14.824 8.76199 14.824 8.46899 14.531C8.17599 14.238 8.17599 13.763 8.46899 13.47L10.469 11.47C10.538 11.401 10.6209 11.346 10.7129 11.308C10.8959 11.232 11.1029 11.232 11.2859 11.308C11.3779 11.346 11.461 11.401 11.53 11.47L13.53 13.47Z"
    />
  </symbol>
  <symbol id="sync" viewBox="0 0 24 24">
    <path
      d="M21.686 13.0811C21.148 18.0231 16.984 21.75 12 21.75C8.603 21.75 5.504 19.979 3.75 17.186V20C3.75 20.414 3.414 20.75 3 20.75C2.586 20.75 2.25 20.414 2.25 20V15C2.25 14.586 2.586 14.25 3 14.25H8C8.414 14.25 8.75 14.586 8.75 15C8.75 15.414 8.414 15.75 8 15.75H4.66992C6.05992 18.476 8.877 20.25 12 20.25C16.217 20.25 19.7391 17.0979 20.1951 12.9189C20.2391 12.5059 20.613 12.2109 21.021 12.2539C21.434 12.2989 21.73 12.6691 21.686 13.0811ZM21 3.25C20.586 3.25 20.25 3.586 20.25 4V6.81396C18.496 4.02096 15.397 2.25 12 2.25C7.017 2.25 2.85296 5.97695 2.31396 10.9189C2.26896 11.3309 2.56603 11.7011 2.97803 11.7461C3.00503 11.7491 3.03306 11.75 3.06006 11.75C3.43806 11.75 3.76296 11.4651 3.80396 11.0811C4.25996 6.90205 7.78302 3.75 11.999 3.75C15.123 3.75 17.9391 5.524 19.3291 8.25H16C15.586 8.25 15.25 8.586 15.25 9C15.25 9.414 15.586 9.75 16 9.75H21C21.414 9.75 21.75 9.414 21.75 9V4C21.75 3.586 21.414 3.25 21 3.25Z"
    />
  </symbol>
  <symbol id="search" viewBox="0 0 22 22">
    <path
      d="M21.53 20.47L17.689 16.629C18.973 15.106 19.75 13.143 19.75 11C19.75 6.175 15.825 2.25 11 2.25C6.175 2.25 2.25 6.175 2.25 11C2.25 15.825 6.175 19.75 11 19.75C13.143 19.75 15.106 18.973 16.629 17.689L20.47 21.53C20.616 21.676 20.808 21.75 21 21.75C21.192 21.75 21.384 21.677 21.53 21.53C21.823 21.238 21.823 20.763 21.53 20.47ZM3.75 11C3.75 7.002 7.002 3.75 11 3.75C14.998 3.75 18.25 7.002 18.25 11C18.25 14.998 14.998 18.25 11 18.25C7.002 18.25 3.75 14.998 3.75 11Z" />
  </symbol>
  <symbol id="close" viewBox="0 0 24 24">
    <path
      d="M13.414 12L18.707 6.70695C19.098 6.31695 19.098 5.68301 18.707 5.29301C18.316 4.90201 17.684 4.90201 17.293 5.29301L12 10.586L6.70701 5.29301C6.31601 4.90201 5.68401 4.90201 5.29301 5.29301C4.90201 5.68301 4.90201 6.31695 5.29301 6.70695L10.586 12L5.29301 17.293C4.90201 17.683 4.90201 18.3169 5.29301 18.7069C5.48801 18.9019 5.74401 19 6.00001 19C6.25601 19 6.51201 18.9019 6.70701 18.7069L12 13.414L17.293 18.7069C17.488 18.9019 17.744 19 18 19C18.256 19 18.512 18.9019 18.707 18.7069C19.098 18.3169 19.098 17.683 18.707 17.293L13.414 12Z" />
  </symbol>
  <symbol id="file-maker" viewBox="0 0 24 24">
    <path fill-rule="evenodd" clip-rule="evenodd"
          d="M3.87868 1.87868C4.44129 1.31607 5.20435 1 6 1H13C13.2652 1 13.5196 1.10536 13.7071 1.29289L20.7071 8.29289C20.8946 8.48043 21 8.73478 21 9V20C21 20.7957 20.6839 21.5587 20.1213 22.1213C19.5587 22.6839 18.7957 23 18 23H6C5.20435 23 4.44129 22.6839 3.87868 22.1213C3.31607 21.5587 3 20.7957 3 20V4C3 3.20435 3.31607 2.44129 3.87868 1.87868ZM6 3C5.73478 3 5.48043 3.10536 5.29289 3.29289C5.10536 3.48043 5 3.73478 5 4V20C5 20.2652 5.10536 20.5196 5.29289 20.7071C5.48043 20.8946 5.73478 21 6 21H18C18.2652 21 18.5196 20.8946 18.7071 20.7071C18.8946 20.5196 19 20.2652 19 20V10H13C12.4477 10 12 9.55228 12 9V3H6ZM14 4.41421L17.5858 8H14V4.41421Z" />
  </symbol>
  <symbol id="circle-close" viewBox="0 0 24 24">
    <path
      d="M11.9583 3C7.01833 3 3 7.01917 3 11.9583C3 16.8975 7.01833 20.9167 11.9583 20.9167C16.8983 20.9167 20.9167 16.8975 20.9167 11.9583C20.9167 7.01917 16.8983 3 11.9583 3ZM11.9583 19.6667C7.7075 19.6667 4.25 16.2092 4.25 11.9583C4.25 7.7075 7.7075 4.25 11.9583 4.25C16.2092 4.25 19.6667 7.7075 19.6667 11.9583C19.6667 16.2092 16.2092 19.6667 11.9583 19.6667ZM14.9 9.90002L12.8417 11.9583L14.9 14.0166C15.1442 14.2608 15.1442 14.6567 14.9 14.9008C14.7783 15.0225 14.6183 15.0841 14.4583 15.0841C14.2983 15.0841 14.1383 15.0233 14.0167 14.9008L11.9583 12.8425L9.9 14.9008C9.77833 15.0225 9.61833 15.0841 9.45833 15.0841C9.29833 15.0841 9.13833 15.0233 9.01667 14.9008C8.7725 14.6567 8.7725 14.2608 9.01667 14.0166L11.075 11.9583L9.01667 9.90002C8.7725 9.65586 8.7725 9.26 9.01667 9.01583C9.26083 8.77166 9.65667 8.77166 9.90084 9.01583L11.9592 11.0742L14.0175 9.01583C14.2617 8.77166 14.6575 8.77166 14.9017 9.01583C15.1442 9.26 15.1442 9.65669 14.9 9.90002Z" />
  </symbol>
  <symbol id="customize" viewBox="0 0 24 24">
    <path
      d="M3 5.75H7.25V7C7.25 7.414 7.586 7.75 8 7.75C8.414 7.75 8.75 7.414 8.75 7V3C8.75 2.586 8.414 2.25 8 2.25C7.586 2.25 7.25 2.586 7.25 3V4.25H3C2.586 4.25 2.25 4.586 2.25 5C2.25 5.414 2.586 5.75 3 5.75ZM12 5.75H21C21.414 5.75 21.75 5.414 21.75 5C21.75 4.586 21.414 4.25 21 4.25H12C11.586 4.25 11.25 4.586 11.25 5C11.25 5.414 11.586 5.75 12 5.75ZM3 12.75H12C12.414 12.75 12.75 12.414 12.75 12C12.75 11.586 12.414 11.25 12 11.25H3C2.586 11.25 2.25 11.586 2.25 12C2.25 12.414 2.586 12.75 3 12.75ZM21 11.25H16.75V10C16.75 9.586 16.414 9.25 16 9.25C15.586 9.25 15.25 9.586 15.25 10V14C15.25 14.414 15.586 14.75 16 14.75C16.414 14.75 16.75 14.414 16.75 14V12.75H21C21.414 12.75 21.75 12.414 21.75 12C21.75 11.586 21.414 11.25 21 11.25ZM8 16.25C7.586 16.25 7.25 16.586 7.25 17V18.25H3C2.586 18.25 2.25 18.586 2.25 19C2.25 19.414 2.586 19.75 3 19.75H7.25V21C7.25 21.414 7.586 21.75 8 21.75C8.414 21.75 8.75 21.414 8.75 21V17C8.75 16.586 8.414 16.25 8 16.25ZM21 18.25H12C11.586 18.25 11.25 18.586 11.25 19C11.25 19.414 11.586 19.75 12 19.75H21C21.414 19.75 21.75 19.414 21.75 19C21.75 18.586 21.414 18.25 21 18.25Z"
      fill="#25314C" />
  </symbol>

  <symbol id="pin" viewBox="0 0 16 16">
    <path xmlns="http://www.w3.org/2000/svg" fill-rule="evenodd" clip-rule="evenodd"
          d="M11.7674 0.640581C10.7729 -0.353982 9.11151 -0.164429 8.36654 1.02861L6.29281 4.34969C6.29281 4.34969 6.29172 4.35152 6.28784 4.35431C6.28309 4.35771 6.27294 4.36358 6.25592 4.36838C6.21873 4.37885 6.17016 4.37804 6.12677 4.36196C5.41899 4.09957 4.20405 3.81133 2.94244 4.28654C2.26273 4.54256 1.92355 5.1318 1.88659 5.72962C1.85133 6.30002 2.08169 6.88637 2.50539 7.31005L5.08227 9.88694L0.213478 14.7557C-0.0711592 15.0404 -0.0711592 15.5018 0.213478 15.7865C0.498112 16.0712 0.959603 16.0712 1.24424 15.7865L6.11304 10.9177L8.68994 13.4946C9.11362 13.9183 9.69999 14.1487 10.2704 14.1134C10.8682 14.0765 11.4575 13.7373 11.7135 13.0576C12.1887 11.796 11.9004 10.581 11.6381 9.87323C11.622 9.82987 11.6212 9.78132 11.6316 9.74408C11.6364 9.7271 11.6423 9.71696 11.6458 9.71215C11.6485 9.70829 11.6503 9.70727 11.6503 9.70727L14.9714 7.63345C16.1645 6.88848 16.354 5.22717 15.3594 4.23262L11.7674 0.640581ZM9.60305 1.80069C9.85137 1.40301 10.4052 1.33983 10.7366 1.67135L14.3287 5.26337C14.6602 5.5949 14.597 6.14867 14.1993 6.39698L10.8783 8.47076C10.1897 8.90072 10.0364 9.74656 10.2713 10.3799C10.4796 10.9419 10.6458 11.7567 10.3493 12.5438C10.3291 12.5975 10.3065 12.6169 10.2927 12.6264C10.2751 12.6386 10.2403 12.6548 10.1805 12.6585C10.0511 12.6665 9.86631 12.6094 9.72069 12.4639L3.53615 6.2793C3.39057 6.13372 3.33353 5.94893 3.34153 5.81956C3.34522 5.7597 3.36145 5.72497 3.37363 5.7073C3.38315 5.69348 3.40255 5.67092 3.45626 5.65069C4.24331 5.35424 5.05811 5.52045 5.62007 5.72878C6.25349 5.9636 7.09928 5.81034 7.5293 5.12177L9.60305 1.80069Z"
          fill="#25314C" />
  </symbol>

  <symbol id="unpin" viewBox="0 0 16 16">
    <path
      d="M11.7681 0.640577C10.7735 -0.35398 9.11219 -0.164428 8.36723 1.0286L6.39648 4.18475L7.44967 5.23797C7.47781 5.20107 7.50463 5.16233 7.52999 5.12173L9.60373 1.80068C9.85205 1.403 10.4058 1.33982 10.7373 1.67134L14.3293 5.26334C14.6608 5.59486 14.5977 6.14863 14.2 6.39694L10.8789 8.47071C10.8383 8.49607 10.7996 8.52282 10.7627 8.55096L11.8159 9.60415L14.972 7.6334C16.1651 6.88844 16.3547 5.22714 15.3601 4.23258L11.7681 0.640577Z"
      fill="#25314C" />
    <path
      d="M1.88658 5.72967C1.913 5.30234 2.09384 4.87939 2.44311 4.57939L3.49887 5.63515C3.48465 5.6402 3.47045 5.6454 3.45624 5.65075C3.40253 5.67098 3.38313 5.69354 3.37361 5.70736C3.36143 5.72502 3.3452 5.75976 3.34151 5.81962C3.3335 5.94899 3.39054 6.13378 3.53613 6.27936L9.72063 12.4639C9.86625 12.6095 10.051 12.6665 10.1804 12.6585C10.2402 12.6548 10.275 12.6386 10.2926 12.6264C10.3065 12.6169 10.329 12.5975 10.3493 12.5438C10.3546 12.5296 10.3598 12.5154 10.3649 12.5011L11.4206 13.5569C11.1206 13.9062 10.6977 14.087 10.2703 14.1134C9.69993 14.1487 9.11357 13.9183 8.68988 13.4946L6.113 10.9177L1.24423 15.7865C0.959597 16.0711 0.498108 16.0711 0.213476 15.7865C-0.0711588 15.5018 -0.0711588 15.0404 0.213476 14.7557L5.08224 9.88697L2.50537 7.3101C2.08168 6.88642 1.85131 6.30007 1.88658 5.72967Z"
      fill="#25314C" />
    <path
      d="M0.752542 0.7409C0.467903 1.02553 0.467903 1.48702 0.752542 1.77165L14.2934 15.3125C14.578 15.5972 15.0396 15.5972 15.3242 15.3125C15.6089 15.0279 15.6089 14.5664 15.3242 14.2818L1.7833 0.7409C1.49866 0.45626 1.03717 0.45626 0.752542 0.7409Z"
      fill="#25314C" />
  </symbol>

  <symbol id="document" viewBox="0 0 20 20">
    <path
      d="M15.25 6.70833H13.7917V4C13.7917 1.985 12.6817 0.875 10.6667 0.875H4C1.985 0.875 0.875 1.985 0.875 4V14C0.875 16.015 1.985 17.125 4 17.125H14.8333C16.0975 17.125 17.125 16.0975 17.125 14.8333V8.58333C17.125 7.54917 16.2833 6.70833 15.25 6.70833ZM4 15.875C2.68583 15.875 2.125 15.3142 2.125 14V4C2.125 2.68583 2.68583 2.125 4 2.125H10.6667C11.9808 2.125 12.5417 2.68583 12.5417 4V14.8333C12.5417 15.2083 12.6317 15.5625 12.7925 15.875H4ZM15.875 14.8333C15.875 15.4075 15.4075 15.875 14.8333 15.875C14.2592 15.875 13.7917 15.4075 13.7917 14.8333V7.95833H15.25C15.5942 7.95833 15.875 8.23833 15.875 8.58333V14.8333ZM10.875 5.66667C10.875 6.01167 10.595 6.29167 10.25 6.29167H6.5C6.155 6.29167 5.875 6.01167 5.875 5.66667C5.875 5.32167 6.155 5.04167 6.5 5.04167H10.25C10.595 5.04167 10.875 5.32167 10.875 5.66667ZM10.875 9C10.875 9.345 10.595 9.625 10.25 9.625H6.5C6.155 9.625 5.875 9.345 5.875 9C5.875 8.655 6.155 8.375 6.5 8.375H10.25C10.595 8.375 10.875 8.655 10.875 9ZM10.875 12.3333C10.875 12.6783 10.595 12.9583 10.25 12.9583H6.5C6.155 12.9583 5.875 12.6783 5.875 12.3333C5.875 11.9883 6.155 11.7083 6.5 11.7083H10.25C10.595 11.7083 10.875 11.9883 10.875 12.3333ZM5.04167 5.66667C5.04167 6.01167 4.76167 6.29167 4.41667 6.29167C4.07167 6.29167 3.79167 6.01167 3.79167 5.66667C3.79167 5.32167 4.07167 5.04167 4.41667 5.04167C4.76167 5.04167 5.04167 5.32167 5.04167 5.66667ZM5.04167 9C5.04167 9.345 4.76167 9.625 4.41667 9.625C4.07167 9.625 3.79167 9.345 3.79167 9C3.79167 8.655 4.07167 8.375 4.41667 8.375C4.76167 8.375 5.04167 8.655 5.04167 9ZM5.04167 12.3333C5.04167 12.6783 4.76167 12.9583 4.41667 12.9583C4.07167 12.9583 3.79167 12.6783 3.79167 12.3333C3.79167 11.9883 4.07167 11.7083 4.41667 11.7083C4.76167 11.7083 5.04167 11.9883 5.04167 12.3333Z"
      fill="#25314C" />
  </symbol>

  <symbol id="plus-circle" viewBox="0 0 20 20">
    <path xmlns="http://www.w3.org/2000/svg"
          d="M9.99935 1.04199C5.05935 1.04199 1.04102 5.06116 1.04102 10.0003C1.04102 14.9395 5.05935 18.9587 9.99935 18.9587C14.9393 18.9587 18.9577 14.9395 18.9577 10.0003C18.9577 5.06116 14.9393 1.04199 9.99935 1.04199ZM9.99935 17.7087C5.74852 17.7087 2.29102 14.2512 2.29102 10.0003C2.29102 5.74949 5.74852 2.29199 9.99935 2.29199C14.2502 2.29199 17.7077 5.74949 17.7077 10.0003C17.7077 14.2512 14.2502 17.7087 9.99935 17.7087ZM13.541 10.0003C13.541 10.3453 13.261 10.6253 12.916 10.6253H10.6243V12.917C10.6243 13.262 10.3443 13.542 9.99935 13.542C9.65435 13.542 9.37435 13.262 9.37435 12.917V10.6253H7.08268C6.73768 10.6253 6.45768 10.3453 6.45768 10.0003C6.45768 9.65533 6.73768 9.37533 7.08268 9.37533H9.37435V7.08366C9.37435 6.73866 9.65435 6.45866 9.99935 6.45866C10.3443 6.45866 10.6243 6.73866 10.6243 7.08366V9.37533H12.916C13.261 9.37533 13.541 9.65533 13.541 10.0003Z"
          fill="#25314C" />
  </symbol>

  <symbol id="file-plus" viewBox="0 0 20 20">
    <path xmlns="http://www.w3.org/2000/svg"
          d="M17.1077 7.05833L12.1077 2.05833C11.9902 1.94083 11.8318 1.875 11.666 1.875H6.66602C4.65102 1.875 3.54102 2.985 3.54102 5V15C3.54102 17.015 4.65102 18.125 6.66602 18.125H14.166C16.181 18.125 17.291 17.015 17.291 15V7.5C17.291 7.33417 17.2252 7.175 17.1077 7.05833ZM12.291 4.00917L15.1568 6.875H14.166C12.8518 6.875 12.291 6.31417 12.291 5V4.00917ZM14.166 16.875H6.66602C5.35185 16.875 4.79102 16.3142 4.79102 15V5C4.79102 3.68583 5.35185 3.125 6.66602 3.125H11.041V5C11.041 7.015 12.151 8.125 14.166 8.125H16.041V15C16.041 16.3142 15.4802 16.875 14.166 16.875ZM13.1243 11.6667C13.1243 12.0117 12.8443 12.2917 12.4993 12.2917H11.041V13.75C11.041 14.095 10.761 14.375 10.416 14.375C10.071 14.375 9.79102 14.095 9.79102 13.75V12.2917H8.33268C7.98768 12.2917 7.70768 12.0117 7.70768 11.6667C7.70768 11.3217 7.98768 11.0417 8.33268 11.0417H9.79102V9.58333C9.79102 9.23833 10.071 8.95833 10.416 8.95833C10.761 8.95833 11.041 9.23833 11.041 9.58333V11.0417H12.4993C12.8443 11.0417 13.1243 11.3217 13.1243 11.6667Z"
          fill="#25314C" />
  </symbol>
  <symbol id="send" viewBox="0 0 20 20">
    <path
      d="M17.0035 8.02441L7.49767 2.33942C6.2235 1.57525 4.66765 1.77691 3.62682 2.83441C2.59182 3.88691 2.4192 5.43692 3.19754 6.69026L5.25341 10.0002L3.19754 13.3102C2.41837 14.5636 2.59099 16.1136 3.62682 17.1661C4.24599 17.7952 5.04668 18.1211 5.86335 18.1211C6.41835 18.1211 6.98183 17.9702 7.49767 17.6611L17.0035 11.9761C17.7068 11.5561 18.1259 10.8169 18.1259 10.0002C18.1259 9.18358 17.7068 8.44441 17.0035 8.02441ZM16.3626 10.9036L6.8568 16.5886C5.90763 17.1552 5.00334 16.7827 4.51834 16.2894C4.03834 15.8011 3.68185 14.9002 4.25935 13.9694L6.33678 10.6244H10.8343C11.1793 10.6244 11.4593 10.3444 11.4593 9.9994C11.4593 9.6544 11.1793 9.3744 10.8343 9.3744H6.33678L4.25935 6.0294C3.68185 5.09856 4.03751 4.19773 4.51834 3.7094C4.83001 3.39273 5.31417 3.12524 5.87251 3.12524C6.18334 3.12524 6.5168 3.20773 6.8568 3.41107L16.3626 9.09608C16.6843 9.28858 16.8759 9.62607 16.8759 9.9994C16.8759 10.3727 16.6843 10.7111 16.3626 10.9036Z" />
  </symbol>
  <symbol id="print" viewBox="0 0 20 20">
    <svg width="20" height="20" viewBox="0 0 20 20" fill="none" xmlns="http://www.w3.org/2000/svg">
      <path
        d="M15 5.20833H14.7917V4.16667C14.7917 4.00083 14.7259 3.84164 14.6084 3.72498L12.9417 2.05831C12.8242 1.94081 12.6658 1.875 12.5 1.875H6.66667C5.8625 1.875 5.20833 2.52917 5.20833 3.33333V5.20833H5C2.985 5.20833 1.875 6.31833 1.875 8.33333V12.9167C1.875 13.9508 2.71667 14.7917 3.75 14.7917H5.20833V16.6667C5.20833 17.4708 5.8625 18.125 6.66667 18.125H13.3333C14.1375 18.125 14.7917 17.4708 14.7917 16.6667V14.7917H16.25C17.2833 14.7917 18.125 13.9508 18.125 12.9167V8.33333C18.125 6.31833 17.015 5.20833 15 5.20833ZM6.45833 3.33333C6.45833 3.21833 6.55167 3.125 6.66667 3.125H12.2408L13.5417 4.42586V5.20833H6.45833V3.33333ZM13.5417 16.6667C13.5417 16.7817 13.4483 16.875 13.3333 16.875H6.66667C6.55167 16.875 6.45833 16.7817 6.45833 16.6667V13.125H13.5417V16.6667ZM16.875 12.9167C16.875 13.2617 16.5942 13.5417 16.25 13.5417H14.7917V12.5C14.7917 12.155 14.5117 11.875 14.1667 11.875H5.83333C5.48833 11.875 5.20833 12.155 5.20833 12.5V13.5417H3.75C3.40583 13.5417 3.125 13.2617 3.125 12.9167V8.33333C3.125 7.01917 3.68583 6.45833 5 6.45833H15C16.3142 6.45833 16.875 7.01917 16.875 8.33333V12.9167ZM15 9.16667C15 9.62667 14.6267 10 14.1667 10C13.7067 10 13.3333 9.62667 13.3333 9.16667C13.3333 8.70667 13.7067 8.33333 14.1667 8.33333C14.6267 8.33333 15 8.70667 15 9.16667Z"
        fill="#25314C" />
    </svg>
  </symbol>

  <symbol id="PenWhite" viewBox="0 0 20 20">
    <svg width="20" height="20" viewBox="0 0 20 20" fill="none" xmlns="http://www.w3.org/2000/svg">
      <path
        d="M17.4534 4.40338L15.5967 2.54669C15.1626 2.11336 14.6201 1.87417 13.9734 1.875C13.3601 1.87584 12.7842 2.11588 12.3525 2.55005L2.0575 12.8925C1.94 13.01 1.875 13.1683 1.875 13.3333V17.5C1.875 17.845 2.155 18.125 2.5 18.125H6.66667C6.83167 18.125 6.99088 18.0592 7.10754 17.9433L17.45 7.6475C17.8841 7.215 18.1242 6.63922 18.125 6.02672C18.1258 5.41338 17.8876 4.83672 17.4534 4.40338ZM6.40828 16.875H3.125V13.5917L10.6191 6.06334L13.9376 9.3808L6.40828 16.875ZM16.5684 6.76168L14.8234 8.49915L11.5009 5.17751L13.2383 3.4317C13.435 3.2342 13.6967 3.12584 13.9758 3.125H13.9766C14.255 3.125 14.5167 3.23331 14.7142 3.42997L16.5708 5.28666C16.7675 5.48416 16.8758 5.74582 16.8758 6.02499C16.875 6.30332 16.7659 6.56501 16.5684 6.76168Z"
        fill="white" />
    </svg>

    <!--<path d="M15 5.20833H14.7917V4.16667C14.7917 4.00083 14.7259 3.84164 14.6084 3.72498L12.9417 2.05831C12.8242 1.94081 12.6658 1.875 12.5 1.875H6.66667C5.8625 1.875 5.20833 2.52917 5.20833 3.33333V5.20833H5C2.985 5.20833 1.875 6.31833 1.875 8.33333V12.9167C1.875 13.9508 2.71667 14.7917 3.75 14.7917H5.20833V16.6667C5.20833 17.4708 5.8625 18.125 6.66667 18.125H13.3333C14.1375 18.125 14.7917 17.4708 14.7917 16.6667V14.7917H16.25C17.2833 14.7917 18.125 13.9508 18.125 12.9167V8.33333C18.125 6.31833 17.015 5.20833 15 5.20833ZM6.45833 3.33333C6.45833 3.21833 6.55167 3.125 6.66667 3.125H12.2408L13.5417 4.42586V5.20833H6.45833V3.33333ZM13.5417 16.6667C13.5417 16.7817 13.4483 16.875 13.3333 16.875H6.66667C6.55167 16.875 6.45833 16.7817 6.45833 16.6667V13.125H13.5417V16.6667ZM16.875 12.9167C16.875 13.2617 16.5942 13.5417 16.25 13.5417H14.7917V12.5C14.7917 12.155 14.5117 11.875 14.1667 11.875H5.83333C5.48833 11.875 5.20833 12.155 5.20833 12.5V13.5417H3.75C3.40583 13.5417 3.125 13.2617 3.125 12.9167V8.33333C3.125 7.01917 3.68583 6.45833 5 6.45833H15C16.3142 6.45833 16.875 7.01917 16.875 8.33333V12.9167ZM15 9.16667C15 9.62667 14.6267 10 14.1667 10C13.7067 10 13.3333 9.62667 13.3333 9.16667C13.3333 8.70667 13.7067 8.33333 14.1667 8.33333C14.6267 8.33333 15 8.70667 15 9.16667Z" fill="#25314C"/>-->
  </symbol>

  <symbol id="ado-delete" viewBox="0 0 20 20">
    <svg width="20" height="20" viewBox="0 0 20 20" fill="none" xmlns="http://www.w3.org/2000/svg">
      <path
        d="M17.5 4.375H14.5342C13.7833 4.375 13.7517 4.28 13.5458 3.66333L13.3775 3.1575C13.1217 2.39083 12.4075 1.875 11.5992 1.875H8.40083C7.59249 1.875 6.8775 2.39 6.6225 3.1575L6.45417 3.66333C6.24834 4.28083 6.21666 4.375 5.46583 4.375H2.5C2.155 4.375 1.875 4.655 1.875 5C1.875 5.345 2.155 5.625 2.5 5.625H3.58166L4.22084 15.2075C4.34417 17.0617 5.48084 18.125 7.33917 18.125H12.6617C14.5192 18.125 15.6558 17.0617 15.78 15.2075L16.4192 5.625H17.5C17.845 5.625 18.125 5.345 18.125 5C18.125 4.655 17.845 4.375 17.5 4.375ZM7.80833 3.5525C7.89416 3.29667 8.13166 3.125 8.40083 3.125H11.5992C11.8683 3.125 12.1067 3.29667 12.1917 3.5525L12.36 4.05833C12.3967 4.1675 12.4333 4.27333 12.4733 4.375H7.525C7.565 4.2725 7.60251 4.16666 7.63917 4.05833L7.80833 3.5525ZM14.5317 15.1242C14.4525 16.3183 13.8575 16.875 12.6608 16.875H7.33833C6.14167 16.875 5.5475 16.3192 5.4675 15.1242L4.83417 5.625H5.465C5.56917 5.625 5.65583 5.61417 5.74917 5.6075C5.7775 5.61167 5.80333 5.625 5.8325 5.625H14.1658C14.1958 5.625 14.2208 5.61167 14.2492 5.6075C14.3425 5.61417 14.4292 5.625 14.5333 5.625H15.1642L14.5317 15.1242ZM12.2917 9.16667V13.3333C12.2917 13.6783 12.0117 13.9583 11.6667 13.9583C11.3217 13.9583 11.0417 13.6783 11.0417 13.3333V9.16667C11.0417 8.82167 11.3217 8.54167 11.6667 8.54167C12.0117 8.54167 12.2917 8.82167 12.2917 9.16667ZM8.95833 9.16667V13.3333C8.95833 13.6783 8.67833 13.9583 8.33333 13.9583C7.98833 13.9583 7.70833 13.6783 7.70833 13.3333V9.16667C7.70833 8.82167 7.98833 8.54167 8.33333 8.54167C8.67833 8.54167 8.95833 8.82167 8.95833 9.16667Z"
        fill="#25314C" />
    </svg>

  </symbol>
  <symbol id="ado-extension" viewBox="0 0 20 20">
    <svg width="18" height="18" viewBox="0 0 18 18" fill="none" xmlns="http://www.w3.org/2000/svg">
      <path
        d="M14.8327 17.125H11.916C11.3418 17.125 10.8743 16.6575 10.8743 16.0833V14.8333C10.8743 14.2592 10.4068 13.7917 9.83268 13.7917C9.25852 13.7917 8.79102 14.2592 8.79102 14.8333V16.0833C8.79102 16.6575 8.32352 17.125 7.74935 17.125H5.66602C4.40185 17.125 3.37435 16.0967 3.37435 14.8333V12.9583H2.33268C1.06852 12.9583 0.0410156 11.93 0.0410156 10.6667C0.0410156 9.40333 1.06852 8.375 2.33268 8.375H3.37435V6.5C3.37435 5.23667 4.40185 4.20833 5.66602 4.20833H7.54102V3.16667C7.54102 1.90333 8.56852 0.875 9.83268 0.875C11.0968 0.875 12.1243 1.90333 12.1243 3.16667V4.20833H14.8327C16.0968 4.20833 17.1243 5.23667 17.1243 6.5V8.58333C17.1243 9.1575 16.6568 9.625 16.0827 9.625H14.8327C14.2585 9.625 13.791 10.0925 13.791 10.6667C13.791 11.2408 14.2585 11.7083 14.8327 11.7083H16.0827C16.6568 11.7083 17.1243 12.1758 17.1243 12.75V14.8333C17.1243 16.0967 16.0968 17.125 14.8327 17.125ZM12.1243 15.875H14.8327C15.4068 15.875 15.8743 15.4075 15.8743 14.8333V12.9583H14.8327C13.5685 12.9583 12.541 11.93 12.541 10.6667C12.541 9.40333 13.5685 8.375 14.8327 8.375H15.8743V6.5C15.8743 5.92583 15.4068 5.45833 14.8327 5.45833H11.916C11.3418 5.45833 10.8743 4.99083 10.8743 4.41667V3.16667C10.8743 2.5925 10.4068 2.125 9.83268 2.125C9.25852 2.125 8.79102 2.5925 8.79102 3.16667V4.41667C8.79102 4.99083 8.32352 5.45833 7.74935 5.45833H5.66602C5.09185 5.45833 4.62435 5.92583 4.62435 6.5V8.58333C4.62435 9.1575 4.15685 9.625 3.58268 9.625H2.33268C1.75852 9.625 1.29102 10.0925 1.29102 10.6667C1.29102 11.2408 1.75852 11.7083 2.33268 11.7083H3.58268C4.15685 11.7083 4.62435 12.1758 4.62435 12.75V14.8333C4.62435 15.4075 5.09185 15.875 5.66602 15.875H7.54102V14.8333C7.54102 13.57 8.56852 12.5417 9.83268 12.5417C11.0968 12.5417 12.1243 13.57 12.1243 14.8333V15.875Z"
        fill="#25314C" />
    </svg>
  </symbol>

  <symbol id="ado-print" viewBox="0 0 20 20">
    <svg width="20" height="20" viewBox="0 0 20 20" fill="none" xmlns="http://www.w3.org/2000/svg">
      <path
        d="M15 5.20833H14.7917V4.16667C14.7917 4.00083 14.7259 3.84164 14.6084 3.72498L12.9417 2.05831C12.8242 1.94081 12.6658 1.875 12.5 1.875H6.66667C5.8625 1.875 5.20833 2.52917 5.20833 3.33333V5.20833H5C2.985 5.20833 1.875 6.31833 1.875 8.33333V12.9167C1.875 13.9508 2.71667 14.7917 3.75 14.7917H5.20833V16.6667C5.20833 17.4708 5.8625 18.125 6.66667 18.125H13.3333C14.1375 18.125 14.7917 17.4708 14.7917 16.6667V14.7917H16.25C17.2833 14.7917 18.125 13.9508 18.125 12.9167V8.33333C18.125 6.31833 17.015 5.20833 15 5.20833ZM6.45833 3.33333C6.45833 3.21833 6.55167 3.125 6.66667 3.125H12.2408L13.5417 4.42586V5.20833H6.45833V3.33333ZM13.5417 16.6667C13.5417 16.7817 13.4483 16.875 13.3333 16.875H6.66667C6.55167 16.875 6.45833 16.7817 6.45833 16.6667V13.125H13.5417V16.6667ZM16.875 12.9167C16.875 13.2617 16.5942 13.5417 16.25 13.5417H14.7917V12.5C14.7917 12.155 14.5117 11.875 14.1667 11.875H5.83333C5.48833 11.875 5.20833 12.155 5.20833 12.5V13.5417H3.75C3.40583 13.5417 3.125 13.2617 3.125 12.9167V8.33333C3.125 7.01917 3.68583 6.45833 5 6.45833H15C16.3142 6.45833 16.875 7.01917 16.875 8.33333V12.9167ZM15 9.16667C15 9.62667 14.6267 10 14.1667 10C13.7067 10 13.3333 9.62667 13.3333 9.16667C13.3333 8.70667 13.7067 8.33333 14.1667 8.33333C14.6267 8.33333 15 8.70667 15 9.16667Z"
        fill="#25314C" />
    </svg>
  </symbol>

  <symbol id="ado-send" viewBox="0 0 20 20">
    <svg width="17" height="18" viewBox="0 0 17 18" fill="none" xmlns="http://www.w3.org/2000/svg">
      <path
        d="M15.0035 7.02441L5.49767 1.33942C4.2235 0.575249 2.66765 0.77691 1.62682 1.83441C0.591818 2.88691 0.419204 4.43692 1.19754 5.69026L3.25341 9.00024L1.19754 12.3102C0.418371 13.5636 0.590985 15.1136 1.62682 16.1661C2.24599 16.7952 3.04668 17.1211 3.86335 17.1211C4.41835 17.1211 4.98183 16.9702 5.49767 16.6611L15.0035 10.9761C15.7068 10.5561 16.1259 9.81691 16.1259 9.00024C16.1259 8.18358 15.7068 7.44441 15.0035 7.02441ZM14.3626 9.90359L4.8568 15.5886C3.90763 16.1552 3.00334 15.7827 2.51834 15.2894C2.03834 14.8011 1.68185 13.9002 2.25935 12.9694L4.33678 9.6244H8.83426C9.17926 9.6244 9.45926 9.3444 9.45926 8.9994C9.45926 8.6544 9.17926 8.3744 8.83426 8.3744H4.33678L2.25935 5.0294C1.68185 4.09856 2.03751 3.19773 2.51834 2.7094C2.83001 2.39273 3.31417 2.12524 3.87251 2.12524C4.18334 2.12524 4.5168 2.20773 4.8568 2.41107L14.3626 8.09608C14.6843 8.28858 14.8759 8.62607 14.8759 8.9994C14.8759 9.37274 14.6843 9.71109 14.3626 9.90359Z"
        fill="#25314C" />
    </svg>
  </symbol>
  <symbol id="pen" viewBox="0 0 18 18">
    <svg width="18" height="18" viewBox="0 0 18 18" fill="none" xmlns="http://www.w3.org/2000/svg">
      <path
        d="M16.4534 3.40338L14.5967 1.54669C14.1626 1.11336 13.6201 0.874169 12.9734 0.875002C12.3601 0.875836 11.7842 1.11588 11.3525 1.55005L1.0575 11.8925C0.939995 12.01 0.875 12.1683 0.875 12.3333V16.5C0.875 16.845 1.155 17.125 1.5 17.125H5.66667C5.83167 17.125 5.99088 17.0592 6.10754 16.9433L16.45 6.6475C16.8841 6.215 17.1242 5.63922 17.125 5.02672C17.1258 4.41338 16.8876 3.83672 16.4534 3.40338ZM5.40828 15.875H2.125V12.5917L9.6191 5.06334L12.9376 8.3808L5.40828 15.875ZM15.5684 5.76168L13.8234 7.49915L10.5009 4.17751L12.2383 2.4317C12.435 2.2342 12.6967 2.12584 12.9758 2.125H12.9766C13.255 2.125 13.5167 2.23331 13.7142 2.42997L15.5708 4.28666C15.7675 4.48416 15.8758 4.74582 15.8758 5.02499C15.875 5.30332 15.7659 5.56501 15.5684 5.76168Z"
        fill="#25314C" />
    </svg>
  </symbol>

  <symbol id="open-as" viewBox="0 0 18 18">
    <path
      d="M17.75 1V6C17.75 6.414 17.414 6.75 17 6.75C16.586 6.75 16.25 6.414 16.25 6V2.81104L8.53003 10.531C8.38403 10.677 8.192 10.751 8 10.751C7.808 10.751 7.61597 10.678 7.46997 10.531C7.17697 10.238 7.17697 9.76297 7.46997 9.46997L15.1899 1.75H12C11.586 1.75 11.25 1.414 11.25 1C11.25 0.586 11.586 0.25 12 0.25H17C17.098 0.25 17.1951 0.270105 17.2871 0.308105C17.4701 0.384105 17.6161 0.530111 17.6931 0.714111C17.7301 0.805111 17.75 0.902 17.75 1ZM17 9.25C16.586 9.25 16.25 9.586 16.25 10V14C16.25 15.577 15.577 16.25 14 16.25H4C2.423 16.25 1.75 15.577 1.75 14V4C1.75 2.423 2.423 1.75 4 1.75H8C8.414 1.75 8.75 1.414 8.75 1C8.75 0.586 8.414 0.25 8 0.25H4C1.582 0.25 0.25 1.582 0.25 4V14C0.25 16.418 1.582 17.75 4 17.75H14C16.418 17.75 17.75 16.418 17.75 14V10C17.75 9.586 17.414 9.25 17 9.25Z"></path>
  </symbol>

  <symbol id="post" viewBox="0 0 24 24">
    <svg width="24" height="24" viewBox="0 0 24 24" fill="none" xmlns="http://www.w3.org/2000/svg">
      <path
        d="M20.53 8.47L14.53 2.47C14.389 2.329 14.199 2.25 14 2.25H8C5.582 2.25 4.25 3.582 4.25 6V18C4.25 20.418 5.582 21.75 8 21.75H17C19.418 21.75 20.75 20.418 20.75 18V9C20.75 8.801 20.671 8.61 20.53 8.47ZM14.75 4.811L18.189 8.25H17C15.423 8.25 14.75 7.577 14.75 6V4.811ZM17 20.25H8C6.423 20.25 5.75 19.577 5.75 18V6C5.75 4.423 6.423 3.75 8 3.75H13.25V6C13.25 8.418 14.582 9.75 17 9.75H19.25V18C19.25 19.577 18.577 20.25 17 20.25ZM15.53 11.803C15.823 12.096 15.823 12.571 15.53 12.864L12.197 16.198C12.056 16.339 11.866 16.418 11.667 16.418C11.468 16.418 11.277 16.339 11.137 16.198L9.46997 14.531C9.17697 14.238 9.17697 13.763 9.46997 13.47C9.76297 13.177 10.238 13.177 10.531 13.47L11.668 14.607L14.4709 11.803C14.7629 11.51 15.237 11.51 15.53 11.803Z"
        fill="#25314C" />
    </svg>
  </symbol>
  <symbol id="PriorityCritical" viewBox="0 0 16 16">
    <path
      d="M2.97918 8.35353C2.78385 8.1582 2.78385 7.84151 2.97918 7.64617L7.64585 2.97951C7.84118 2.78417 8.15787 2.78417 8.35321 2.97951L13.0199 7.64617C13.2152 7.84151 13.2152 8.1582 13.0199 8.35353C12.9225 8.45086 12.7945 8.50018 12.6665 8.50018C12.5385 8.50018 12.4105 8.45153 12.3132 8.35353L7.99985 4.04022L3.68654 8.35353C3.49054 8.54886 3.17452 8.54886 2.97918 8.35353ZM8.35256 7.64683C8.15722 7.45149 7.84053 7.45149 7.6452 7.64683L2.97853 12.3135C2.7832 12.5088 2.7832 12.8255 2.97853 13.0208C3.17386 13.2162 3.49055 13.2162 3.68589 13.0208L7.9992 8.70754L12.3125 13.0208C12.4098 13.1182 12.5379 13.1675 12.6659 13.1675C12.7939 13.1675 12.9219 13.1188 13.0192 13.0208C13.2146 12.8255 13.2146 12.5088 13.0192 12.3135L8.35256 7.64683Z"
      fill="#FB3832" />
  </symbol>
  <symbol id="PriorityHigh" viewBox="0 0 16 16">
    <path
      d="M12.6659 10.5002C12.5379 10.5002 12.4098 10.4515 12.3125 10.3535L7.9992 6.04022L3.68589 10.3535C3.49055 10.5489 3.17386 10.5489 2.97853 10.3535C2.7832 10.1582 2.7832 9.84151 2.97853 9.64617L7.6452 4.97951C7.84053 4.78417 8.15722 4.78417 8.35255 4.97951L13.0192 9.64617C13.2146 9.84151 13.2146 10.1582 13.0192 10.3535C12.9219 10.4515 12.7939 10.5002 12.6659 10.5002Z"
      fill="#FB3832" />
  </symbol>
  <symbol id="PriorityMedium" viewBox="0 0 16 16">
    <path
      d="M13.3327 6.5H2.66602C2.39002 6.5 2.16602 6.276 2.16602 6C2.16602 5.724 2.39002 5.5 2.66602 5.5H13.3327C13.6087 5.5 13.8327 5.724 13.8327 6C13.8327 6.276 13.6087 6.5 13.3327 6.5ZM13.8327 10C13.8327 9.724 13.6087 9.5 13.3327 9.5H2.66602C2.39002 9.5 2.16602 9.724 2.16602 10C2.16602 10.276 2.39002 10.5 2.66602 10.5H13.3327C13.6087 10.5 13.8327 10.276 13.8327 10Z"
      fill="#FCCA49" />
  </symbol>
  <symbol id="PriorityLow" viewBox="0 0 16 16">
    <path
      d="M8.0005 11.1672C7.8725 11.1672 7.74448 11.1185 7.64715 11.0205L2.98048 6.35386C2.78515 6.15852 2.78515 5.84183 2.98048 5.6465C3.17582 5.45117 3.49251 5.45117 3.68784 5.6465L8.00115 9.95981L12.3145 5.6465C12.5098 5.45117 12.8265 5.45117 13.0218 5.6465C13.2172 5.84183 13.2172 6.15852 13.0218 6.35386L8.35516 11.0205C8.25649 11.1185 8.1285 11.1672 8.0005 11.1672Z"
      fill="#73CAF1" />
  </symbol>
  <symbol id="PriorityTrival" viewBox="0 0 16 16">
    <path
      d="M13.0199 7.64683C13.2152 7.84216 13.2152 8.15885 13.0199 8.35418L8.35321 13.0208C8.25587 13.1182 8.12785 13.1675 7.99985 13.1675C7.87185 13.1675 7.74383 13.1188 7.6465 13.0208L2.97983 8.35418C2.7845 8.15885 2.7845 7.84216 2.97983 7.64683C3.17517 7.45149 3.49186 7.45149 3.68719 7.64683L8.0005 11.9601L12.3138 7.64683C12.5085 7.45149 12.8245 7.45149 13.0199 7.64683ZM7.6465 8.35353C7.74383 8.45086 7.87185 8.50018 7.99985 8.50018C8.12785 8.50018 8.25587 8.45153 8.35321 8.35353L13.0199 3.68686C13.2152 3.49153 13.2152 3.17484 13.0199 2.97951C12.8245 2.78417 12.5078 2.78417 12.3125 2.97951L7.9992 7.29282L3.68589 2.97951C3.49055 2.78417 3.17386 2.78417 2.97853 2.97951C2.7832 3.17484 2.7832 3.49153 2.97853 3.68686L7.6465 8.35353Z"
      fill="#73CAF1" />
  </symbol>
  <symbol id="CheckBoxUnChecked" viewBox="0 0 20 20">
    <path
      d="M19.75 4.375V15.625C19.75 18.285 18.285 19.75 15.625 19.75H4.375C1.715 19.75 0.25 18.285 0.25 15.625V4.375C0.25 1.715 1.715 0.25 4.375 0.25H15.625C18.285 0.25 19.75 1.715 19.75 4.375ZM18.25 4.375C18.25 2.535 17.465 1.75 15.625 1.75H4.375C2.535 1.75 1.75 2.535 1.75 4.375V15.625C1.75 17.465 2.535 18.25 4.375 18.25H15.625C17.465 18.25 18.25 17.465 18.25 15.625V4.375Z" />
  </symbol>
  <symbol id="CheckboxChecked" viewBox="0 0 20 20">
    <path
      d="M16.0992 0.25H3.91167C1.47417 0.25 0.25 1.46333 0.25 3.90083V16.0883C0.25 18.5258 1.47417 19.75 3.91167 19.75H16.0992C18.5367 19.75 19.75 18.5258 19.75 16.0883V3.90083C19.75 1.46333 18.5367 0.25 16.0992 0.25ZM14.3659 8.05001L9.30665 13.0983C9.15498 13.2608 8.94919 13.3367 8.73252 13.3367C8.52669 13.3367 8.32082 13.2608 8.15832 13.0983L5.63414 10.5742C5.31997 10.26 5.31997 9.73997 5.63414 9.4258C5.9483 9.11164 6.46837 9.11164 6.78253 9.4258L8.73252 11.3759L13.2175 6.90168C13.5316 6.57668 14.0517 6.57668 14.3659 6.90168C14.68 7.21585 14.68 7.72501 14.3659 8.05001Z" />
  </symbol>
  <symbol id="ArrowDown" viewBox="0 0 14 14">
    <path fill-rule="evenodd" clip-rule="evenodd"
          d="M2.29289 4.29289C2.68342 3.90237 3.31658 3.90237 3.70711 4.29289L7 7.58579L10.2929 4.29289C10.6834 3.90237 11.3166 3.90237 11.7071 4.29289C12.0976 4.68342 12.0976 5.31658 11.7071 5.70711L7.70711 9.70711C7.31658 10.0976 6.68342 10.0976 6.29289 9.70711L2.29289 5.70711C1.90237 5.31658 1.90237 4.68342 2.29289 4.29289Z" />
  </symbol>
</svg>
